# AST/ASF file generated using VICON BodyLanguage
# -----------------------------------------------
:version 1.10
:name VICON
:units
  mass 1.0
  length 0.45
  angle deg
:documentation
   .ast/.asf automatically generated from VICON data using
   VICON BodyBuilder and BodyLanguage model FoxedUp or BRILLIANT.MOD
:root
   order TX TY TZ RX RY RZ
   axis XYZ
   position 0 0 0  
   orientation 0 0 0 
:bonedata
  begin
     id 1 
     name lhipjoint
     direction 0.537252 -0.787203 0.302774 
     length 2.29576 
     axis 0 0 0  XYZ
  end
  begin
     id 2 
     name lfemur
     direction 0.34202 -0.939693 0  
     length 7.31114  
     axis 0 0 20  XYZ
    dof rx ry rz
    limits (-160.0 20.0)
           (-70.0 70.0)
           (-60.0 70.0)
  end
  begin
     id 3 
     name ltibia
     direction 0.34202 -0.939693 0   
     length 8.36008   
     axis 0 0 20   XYZ
    dof rx
    limits (-10.0 170.0)
  end
  begin
     id 4 
     name lfoot
     direction 0.0969116 -0.266263 0.959016   
     length 2.16704   
     axis -90 7.62852e-016 20   XYZ
    dof rx rz
    limits (-45.0 90.0)
           (-70.0 20.0)
  end
  begin
     id 5 
     name ltoes
     direction 1.53563e-011 -4.21779e-011 1   
     length 1.08338   
     axis -90 7.62852e-016 20   XYZ
    dof rx
    limits (-90.0 20.0)
  end
  begin
     id 6 
     name rhipjoint
     direction -0.588228 -0.754791 0.290308   
     length 2.39434  
     axis 0 0 0  XYZ 
  end
  begin
     id 7 
     name rfemur
     direction -0.34202 -0.939693 0   
     length 7.45207   
     axis 0 0 -20   XYZ
    dof rx ry rz
    limits (-160.0 20.0)
           (-70.0 70.0)
           (-70.0 60.0)
  end
  begin
     id 8 
     name rtibia
     direction -0.34202 -0.939693 0   
     length 8.03565   
     axis 0 0 -20   XYZ
    dof rx
    limits (-10.0 170.0)
 end
 begin
     id 9 
     name rfoot
     direction -0.107009 -0.294004 0.949795   
     length 2.11509  
     axis -90 -7.62852e-016 -20   XYZ
    dof rx rz
    limits (-45.0 90.0)
           (-20.0 70.0)
  end
  begin
     id 10 
     name rtoes
     direction -1.53533e-011 -4.22004e-011 1   
     length 1.05493   
     axis -90 -7.62852e-016 -20   XYZ
    dof rx
    limits (-90.0 20.0)
  end
  begin
     id 11 
     name lowerback
     direction -0.0115208 0.997969 -0.0626515   
     length 2.03153   
     axis 0 0 0   XYZ
    dof rx ry rz
    limits (-20.0 45.0)
           (-30.0 30.0)
           (-30.0 30.0)
  end
  begin
     id 12 
     name upperback
     direction -0.00423475 0.999974 -0.00583614   
     length 2.03619   
     axis 0 0 0   XYZ
    dof rx ry rz
    limits (-20.0 45.0)
           (-30.0 30.0)
           (-30.0 30.0)
  end
  begin
     id 13 
     name thorax
     direction 0.00289429 0.999728 0.0231573   
     length 2.03921   
     axis 0 0 0   XYZ
    dof rx ry rz
    limits (-20.0 45.0)
           (-30.0 30.0)
           (-30.0 30.0)
  end
  begin
     id 14 
     name lowerneck
     direction 0.0188995 0.987777 0.154721   
     length 1.78836   
     axis 0 0 0   XYZ
    dof rx ry rz
    limits (-20.0 45.0)
           (-30.0 30.0)
           (-30.0 30.0)
  end
  begin
     id 15 
     name upperneck
     direction -0.00612612 0.992995 -0.118   
     length 1.81789   
     axis 0 0 0   XYZ
    dof rx ry rz
    limits (-20.0 45.0)
           (-30.0 30.0)
           (-30.0 30.0)
  end
  begin
     id 16
     name head
     direction -0.00420226 0.998397 -0.0564482  
     length 1.82234  
     axis 0 0 0   XYZ
    dof rx ry rz
    limits (-20.0 45.0)
           (-30.0 30.0)
           (-30.0 30.0)
  end
  begin
     id 17 
     name lclavicle
     direction 0.916488 0.396539 0.0529676  
     length 3.51732  
     axis 0 0 0   XYZ
    dof ry rz
    limits (-20.0 10.0)
           (0.0 20.0)
  end
  begin
     id 18 
     name lhumerus
     direction 1 -4.4896e-011 8.36962e-028   
     length 5.45077   
     axis 180 -30 -90   XYZ
    dof rx ry rz
    limits (-60.0 90.0)
           (-90.0 90.0)
           (-90.0 90.0)
  end
  begin
     id 19
     name lradius
     direction 1 -4.48962e-011 3.01407e-027   
     length 3.05488   
     axis 180 -30 -90   XYZ
    dof rx
    limits (-10.0 170.0)
  end
  begin
     id 20
     name lwrist
     direction 1 -4.49002e-011 4.72961e-027   
     length 1.52744   
     axis -2.72261e-015 90 90   XYZ
    dof ry
    limits (-180.0 0.0)
 end
  begin
     id 21 
     name lhand
     direction 1 -4.4899e-011 9.45681e-027   
     length 0.638818   
     axis -6.0311e-015 90 90   XYZ
    dof rx rz
    limits (-90.0 90.0)
           (-45.0 45.0)
  end
  begin
     id 22 
     name lfingers
     direction 1 -4.48871e-011 1.88632e-026   
     length 0.515032   
     axis -1.20625e-014 90 90   XYZ
    dof rx
    limits (0.0 90.0)
  end
  begin
     id 23
     name lthumb
     direction 0.707107 -6.34964e-011 0.707107   
     length 0.739485   
     axis -90 45 6.32835e-014   XYZ
    dof rx rz
    limits (-45.0 45.0)
           (-45.0 45.0)
  end
  begin
     id 24 
     name rclavicle
     direction -0.949427 0.303202 0.0815894   
     length 3.76167  
     axis 0 0 0   XYZ 
    dof ry rz
    limits (-10.0 20.0)
           (-20.0 0.0)
  end
  begin
     id 25 
     name rhumerus
     direction -1 -4.48971e-011 -6.43969e-018  
     length 4.88702   
     axis 180 30 90   XYZ
    dof rx ry rz
    limits (-90.0 60.0)
           (-90.0 90.0)
           (-90.0 90.0)
  end
  begin
     id 26 
     name rradius
     direction -1 -4.48987e-011 5.46662e-027   
     length 3.22603   
     axis 180 30 90   XYZ
    dof rx
    limits (-10.0 170.0)
  end
  begin
     id 27 
     name rwrist
     direction -1 -4.48956e-011 4.72476e-027   
     length 1.61302   
     axis -2.72261e-015 -90 -90   XYZ
    dof ry
    limits (-180.0 0.0)
  end
  begin
     id 28
     name rhand
     direction -1 -4.4889e-011 9.43571e-027   
     length 0.716293   
     axis -6.0311e-015 -90 -90   XYZ
    dof rx rz
    limits (-90.0 90.0)
           (-45.0 45.0)
  end
  begin
     id 29
     name rfingers
     direction -1 -4.48887e-011 1.88701e-026   
     length 0.577494   
     axis -1.20625e-014 -90 -90   XYZ
    dof rx
    limits (0.0 90.0)
  end
  begin
     id 30
     name rthumb
     direction -0.707107 -6.34825e-011 0.707107   
     length 0.829169   
     axis -90 -45 -6.32835e-014   XYZ
    dof rx rz
    limits (-45.0 45.0)
           (-45.0 45.0)
  end
:hierarchy
  begin
    root lhipjoint rhipjoint lowerback
    lhipjoint lfemur
    lfemur ltibia
    ltibia lfoot
    lfoot ltoes
    rhipjoint rfemur
    rfemur rtibia
    rtibia rfoot
    rfoot rtoes
    lowerback upperback
    upperback thorax
    thorax lowerneck lclavicle rclavicle
    lowerneck upperneck
    upperneck head
    lclavicle lhumerus
    lhumerus lradius
    lradius lwrist
    lwrist lhand lthumb
    lhand lfingers
    rclavicle rhumerus
    rhumerus rradius
    rradius rwrist
    rwrist rhand rthumb
    rhand rfingers
  end

#!OML:ASF F:\VICON\USERDATA\INSTALL\rory3\rory3.ASF
:FULLY-SPECIFIED
:DEGREES
393
root -0.973221 17.7349 0.254239 190.04 80.4785 162.033
lowerback 18.723 0.188062 -5.52764
upperback 6.21484 -0.41845 -3.45469
thorax -3.74624 0.00409882 -0.46219
lowerneck -20.6663 9.63857 8.13095
upperneck 21.2624 14.6332 -13.0665
head 12.0737 5.76771 -3.63542
rclavicle 7.15625e-015 -2.38542e-014
rhumerus 14.5569 16.8631 -78.7964
rradius 58.1362
rwrist -52.2636
rhand -2.69436 3.20167
rfingers 7.12502
rthumb 23.0073 -25.4452
lclavicle 7.15625e-015 -2.38542e-014
lhumerus 4.57421 -20.2931 66.5642
lradius 65.0688
lwrist 74.3226
lhand 4.05394 33.7
lfingers 7.12502
lthumb 29.4672 61.3824
rfemur -54.5269 -21.6966 24.3224
rtibia 38.3059
rfoot -10.4205 10.045
rtoes -8.56604
lfemur -56.6239 13.5581 -30.5092
ltibia 39.3747
lfoot -10.1896 -9.60405
ltoes -9.72337
394
root -0.948546 17.7774 0.263673 188.89 80.6885 161.52
lowerback 18.3516 0.248848 -5.35775
upperback 6.2121 -0.290738 -3.56966
thorax -3.56228 0.0627842 -0.70413
lowerneck -20.5585 9.60257 8.46215
upperneck 21.6849 14.5282 -12.9544
head 12.2172 5.75331 -3.67774
rclavicle 3.57812e-015 1.19271e-014
rhumerus 13.7664 16.7403 -79.1047
rradius 58.171
rwrist -52.1365
rhand -2.62641 3.33027
rfingers 7.12502
rthumb 23.0725 -25.3084
lclavicle 3.57812e-015 1.19271e-014
lhumerus 4.0532 -20.9689 66.6289
lradius 65.3072
lwrist 74.4259
lhand 3.56743 33.4275
lfingers 7.12502
lthumb 29.0026 61.1908
rfemur -53.0436 -21.1844 23.691
rtibia 37.387
rfoot -10.3824 9.55181
rtoes -8.8573
lfemur -55.3064 13.6037 -30.1849
ltibia 38.5983
lfoot -10.1934 -9.17293
ltoes -10.2208
395
root -0.925818 17.8148 0.273902 187.39 80.9344 160.562
lowerback 17.8168 0.228635 -5.61471
upperback 6.28809 -0.312335 -3.41667
thorax -3.19532 0.0385217 -0.38745
lowerneck -20.6749 9.6875 8.28059
upperneck 22.0193 14.7552 -12.905
head 12.3799 5.83018 -3.58537
rclavicle 1.19271e-014 -3.97569e-016
rhumerus 13.3666 17.2774 -78.9835
rradius 58.3039
rwrist -52.1865
rhand -2.71215 3.27168
rfingers 7.12502
rthumb 22.9902 -25.3773
lclavicle 1.19271e-014 -3.97569e-016
lhumerus 3.42268 -20.9876 66.9828
lradius 65.6403
lwrist 74.6893
lhand 2.45574 33.5722
lfingers 7.12502
lthumb 27.9404 61.5133
rfemur -51.7737 -20.7365 23.1348
rtibia 36.5015
rfoot -10.346 9.1083
rtoes -9.67082
lfemur -54.1207 13.6539 -29.9627
ltibia 37.877
lfoot -10.217 -8.74411
ltoes -10.6794
396
root -0.904671 17.8491 0.277563 186.873 81.0625 160.436
lowerback 17.0923 0.223817 -5.57328
upperback 6.27149 -0.266706 -3.2625
thorax -2.83453 0.0444528 -0.250908
lowerneck -20.5806 9.64855 8.22386
upperneck 22.3214 14.7811 -12.8753
head 12.4754 5.83877 -3.5673
rclavicle -9.93923e-015 2.74323e-014
rhumerus 12.5909 17.4443 -78.9737
rradius 58.5817
rwrist -52.0828
rhand -2.53847 3.09298
rfingers 7.12502
rthumb 23.1568 -25.5352
lclavicle -9.93923e-015 2.74323e-014
lhumerus 2.82675 -21.2645 67.3727
lradius 65.8907
lwrist 74.8214
lhand 1.85004 33.9694
lfingers 7.12502
lthumb 27.3612 62.0033
rfemur -50.7088 -20.4262 22.805
rtibia 35.6746
rfoot -10.2343 8.79678
rtoes -10.0434
lfemur -53.1261 13.5342 -29.6265
ltibia 37.1917
lfoot -10.2169 -8.27697
ltoes -11.1769
397
root -0.883678 17.8822 0.276204 185.805 81.0753 159.633
lowerback 16.4964 0.130779 -5.38341
upperback 6.04968 -0.352383 -3.24864
thorax -2.75754 -0.00705082 -0.323753
lowerneck -20.3368 9.61583 8.22687
upperneck 22.6792 14.7843 -12.7357
head 12.5535 5.86069 -3.5278
rclavicle -2.0276e-014 5.1684e-015
rhumerus 11.4872 17.6974 -79.1778
rradius 58.9416
rwrist -52.0544
rhand -2.45559 2.92634
rfingers 7.12502
rthumb 23.2364 -25.6918
lclavicle -2.0276e-014 5.1684e-015
lhumerus 1.95625 -21.6683 67.6831
lradius 66.084
lwrist 74.7671
lhand 1.76272 34.2318
lfingers 7.12502
lthumb 27.2776 62.2788
rfemur -49.7862 -20.1806 22.3448
rtibia 34.9151
rfoot -10.1527 8.48266
rtoes -9.71292
lfemur -52.2436 13.2106 -29.4131
ltibia 36.5029
lfoot -10.1919 -7.79908
ltoes -11.5662
398
root -0.86032 17.9144 0.276757 183.943 81.1901 158.191
lowerback 15.9512 0.0852022 -5.37977
upperback 5.94745 -0.391234 -3.24867
thorax -2.57675 -0.0354205 -0.316313
lowerneck -20.1121 9.63215 8.29327
upperneck 22.9638 14.8536 -12.6961
head 12.6313 5.90666 -3.52121
rclavicle 2.10712e-014 8.34896e-015
rhumerus 10.5272 17.9559 -79.3192
rradius 59.2818
rwrist -52.0789
rhand -2.42662 2.94456
rfingers 7.12502
rthumb 23.2642 -25.6701
lclavicle 2.10712e-014 8.34896e-015
lhumerus 1.18725 -21.9547 67.985
lradius 66.2393
lwrist 74.7566
lhand 1.59908 34.3901
lfingers 7.12502
lthumb 27.1211 62.4617
rfemur -48.7117 -19.8822 21.754
rtibia 34.1949
rfoot -10.1276 8.17282
rtoes -9.89751
lfemur -51.1956 13.1022 -29.3287
ltibia 35.8144
lfoot -10.2052 -7.45589
ltoes -11.8134
399
root -0.835882 17.9466 0.280623 181.731 81.4274 156.486
lowerback 15.5088 0.0995717 -5.50185
upperback 5.85729 -0.37417 -3.25049
thorax -2.43637 -0.0354388 -0.251016
lowerneck -19.8566 9.64685 8.3472
upperneck 23.2083 14.9035 -12.6092
head 12.6785 5.95119 -3.49912
rclavicle 1.15295e-014 -1.11319e-014
rhumerus 9.6371 18.1905 -79.5083
rradius 59.5203
rwrist -52.0637
rhand -2.51194 2.94035
rfingers 7.12502
rthumb 23.1823 -25.6846
lclavicle 1.15295e-014 -1.11319e-014
lhumerus 0.430039 -22.2676 68.2505
lradius 66.2701
lwrist 74.5625
lhand 1.79437 34.2929
lfingers 7.12502
lthumb 27.3079 62.3352
rfemur -47.5557 -19.4679 21.1217
rtibia 33.5111
rfoot -10.0782 7.92955
rtoes -10.0463
lfemur -50.0313 13.0324 -29.1953
ltibia 35.1023
lfoot -10.2452 -6.94038
ltoes -11.9756
400
root -0.810135 17.9787 0.286151 180.81 81.5902 156.066
lowerback 15.0843 0.0819586 -5.35531
upperback 5.76178 -0.363648 -3.22091
thorax -2.31459 -0.0372224 -0.302149
lowerneck -19.6473 9.65582 8.38094
upperneck 23.4922 14.9493 -12.4987
head 12.7461 5.9919 -3.46464
rclavicle 2.70347e-014 2.78299e-015
rhumerus 8.77769 18.2983 -79.7642
rradius 59.6387
rwrist -51.927
rhand -2.33767 2.84169
rfingers 7.12502
rthumb 23.3495 -25.7621
lclavicle 2.70347e-014 2.78299e-015
lhumerus -0.235465 -22.5844 68.5099
lradius 66.1337
lwrist 73.9898
lhand 2.71151 34.0867
lfingers 7.12502
lthumb 28.1849 61.9877
rfemur -46.407 -19.0393 20.7137
rtibia 32.8335
rfoot -10.1494 7.56489
rtoes -10.7257
lfemur -48.9128 12.9897 -28.9042
ltibia 34.4008
lfoot -10.3005 -6.48011
ltoes -13.019
401
root -0.783455 18.0085 0.292032 178.79 81.7581 154.534
lowerback 14.6643 0.079391 -5.40062
upperback 5.65686 -0.360401 -3.20686
thorax -2.20108 -0.0432231 -0.261062
lowerneck -19.32 9.66123 8.47051
upperneck 23.6809 15.0008 -12.5001
head 12.7696 6.03639 -3.4834
rclavicle -1.27222e-014 -5.04913e-014
rhumerus 7.88852 18.4166 -80.0675
rradius 59.7745
rwrist -51.8024
rhand -2.67982 3.25114
rfingers 7.12502
rthumb 23.0212 -25.394
lclavicle -1.27222e-014 -5.04913e-014
lhumerus -0.877333 -23.1215 68.6741
lradius 66.152
lwrist 73.8415
lhand 2.99045 33.7714
lfingers 7.12502
lthumb 28.4514 61.6281
rfemur -45.2827 -18.5941 20.1335
rtibia 32.161
rfoot -10.2077 7.18889
rtoes -11.2678
lfemur -47.8035 12.9726 -28.802
ltibia 33.6951
lfoot -10.3182 -6.08057
ltoes -13.4103
402
root -0.752697 18.039 0.294278 176.791 82.0171 152.96
lowerback 14.1114 0.119765 -5.39985
upperback 5.54433 -0.287362 -3.19958
thorax -2.02684 -0.0165275 -0.26337
lowerneck -18.8802 9.66547 8.68712
upperneck 23.8507 15.0663 -12.6458
head 12.7911 6.08908 -3.57886
rclavicle 2.38542e-014 1.07344e-014
rhumerus 7.01897 18.5127 -80.3079
rradius 59.9085
rwrist -51.8013
rhand -3.4104 3.69398
rfingers 7.12502
rthumb 22.3201 -25.0368
lclavicle 2.38542e-014 1.07344e-014
lhumerus -1.48794 -23.8974 68.8124
lradius 66.3415
lwrist 73.923
lhand 2.5646 33.8788
lfingers 7.12502
lthumb 28.0444 61.8029
rfemur -44.2683 -18.1398 19.6295
rtibia 31.5096
rfoot -10.1442 6.96324
rtoes -11.0509
lfemur -46.757 12.9902 -28.6784
ltibia 33.0111
lfoot -10.3475 -5.67414
ltoes -13.7753
403
root -0.718886 18.0697 0.294638 175.109 82.1609 151.817
lowerback 13.659 0.113406 -5.25807
upperback 5.46375 -0.260368 -3.20758
thorax -1.87227 -0.00918755 -0.353343
lowerneck -18.5356 9.66624 8.84598
upperneck 24.084 15.1123 -12.6724
head 12.837 6.1354 -3.62151
rclavicle -2.38542e-015 -9.54166e-015
rhumerus 6.20491 18.6394 -80.4932
rradius 59.9921
rwrist -51.7749
rhand -2.81245 3.32701
rfingers 7.12502
rthumb 22.894 -25.3339
lclavicle -2.38542e-015 -9.54166e-015
lhumerus -2.13456 -24.5382 68.9652
lradius 66.4675
lwrist 73.8535
lhand 2.29154 34.0784
lfingers 7.12502
lthumb 27.7834 62.0449
rfemur -43.1053 -17.749 19.1224
rtibia 30.901
rfoot -10.1559 6.75284
rtoes -10.6952
lfemur -45.5441 12.8517 -28.4292
ltibia 32.3381
lfoot -10.4429 -5.21211
ltoes -14.2322
